<svg width="40" height="40" viewBox="0 0 40 40" fill="none" xmlns="http://www.w3.org/2000/svg">
<path d="M19.8942 11.7812C14.956 11.7812 10.8643 15.8024 10.8643 20.8112C10.8643 25.82 14.8854 29.8412 19.8942 29.8412C24.9031 29.8412 28.9242 25.7495 28.9242 20.8112C28.9242 15.873 24.8325 11.7812 19.8942 11.7812ZM19.8942 26.5961C16.7196 26.5961 14.1094 23.9858 14.1094 20.8112C14.1094 17.6366 16.7196 15.0264 19.8942 15.0264C23.0688 15.0264 25.6791 17.6366 25.6791 20.8112C25.6791 23.9858 23.0688 26.5961 19.8942 26.5961Z" fill="black"/>
<path d="M29.2771 13.6155C30.407 13.6155 31.3229 12.6996 31.3229 11.5697C31.3229 10.4398 30.407 9.5238 29.2771 9.5238C28.1472 9.5238 27.2312 10.4398 27.2312 11.5697C27.2312 12.6996 28.1472 13.6155 29.2771 13.6155Z" fill="black"/>
<path d="M34.568 6.27865C32.7338 4.37388 30.1235 3.38623 27.1606 3.38623H12.628C6.49039 3.38623 2.39868 7.47794 2.39868 13.6155V28.0776C2.39868 31.1111 3.38634 33.7213 5.36164 35.6261C7.26641 37.4603 9.80609 38.3774 12.6985 38.3774H27.09C30.1235 38.3774 32.6632 37.3898 34.4974 35.6261C36.4022 33.7919 37.3899 31.1816 37.3899 28.1481V13.6155C37.3899 10.6525 36.4022 8.11286 34.568 6.27865ZM34.2858 28.1481C34.2858 30.3351 33.5098 32.0988 32.24 33.298C30.9701 34.4973 29.2064 35.1323 27.09 35.1323H12.6985C10.5821 35.1323 8.81843 34.4973 7.54859 33.298C6.27875 32.0282 5.64383 30.2645 5.64383 28.0776V13.6155C5.64383 11.4991 6.27875 9.73544 7.54859 8.4656C8.74789 7.2663 10.5821 6.63138 12.6985 6.63138H27.2311C29.3475 6.63138 31.1112 7.2663 32.381 8.53614C33.5803 9.80598 34.2858 11.5697 34.2858 13.6155V28.1481Z" fill="black"/>
</svg>
